{"title":"The.Ultimate.Fighter.S26E01.HDTV.H264.Fight-BB","magnet":"magnet:?xt=urn:btih:4f8092f907e64e1f57608f95b613e40faf6dcd0a&dn=The.Ultimate.Fighter.S26E01.HDTV.H264.Fight-BB&tr=udp%3A%2F%2Ftracker.leechers-paradise.org%3A6969&tr=udp%3A%2F%2Fzer0day.ch%3A1337&tr=udp%3A%2F%2Fopen.demonii.com%3A1337&tr=udp%3A%2F%2Ftracker.coppersurfer.tk%3A6969&tr=udp%3A%2F%2Fexodus.desync.com%3A6969","uploader":"Gertivaldo","categoryP":"video","categoryS":"tv_shows","size":"539882304","seeders":"33","leechers":"14","description":"Format                      : MPEG-4\r\nFormat profile              : Base Media / Version 2\r\nCodec ID                    : mp42 (isom/iso2/avc1/mp41)\r\nFile size                   : 515 MiB\r\nDuration                    : 43 min 56 s\r\nOverall bit rate mode       : Variable\r\nOverall bit rate            : 1 638 kb/s\r\nEncoded date                : UTC 2017-09-02 08:39:36\r\nTagged date                 : UTC 2017-09-02 08:39:36\r\nWriting application         : HandBrake 1.0.7 2017040900\r\n\r\nVideo\r\nID                          : 1\r\nFormat                      : AVC\r\nFormat/Info                 : Advanced Video Codec\r\nFormat profile              : <a href=\"/cdn-cgi/l/email-protection\" class=\"__cf_email__\" data-cfemail=\"5d103c34331d1169\">[email&#xA0;protected]</a>\r\nFormat settings, CABAC      : No\r\nFormat settings, RefFrames  : 4 frames\r\nCodec ID                    : avc1\r\nCodec ID/Info               : Advanced Video Coding\r\nDuration                    : 43 min 56 s\r\nBit rate                    : 1 500 kb/s\r\nWidth                       : 960 pixels\r\nHeight                      : 540 pixels\r\nDisplay aspect ratio        : 16:9\r\nFrame rate mode             : Constant\r\nFrame rate                  : 25.000 FPS\r\nColor space                 : YUV\r\nChroma subsampling          : 4:2:0\r\nBit depth                   : 8 bits\r\nScan type                   : Progressive\r\nBits/(Pixel*Frame)          : 0.116\r\nStream size                 : 473 MiB (92%)\r\nWriting library             : x264 core 148 r2708 86b7198\r\nEncoding settings           : cabac=0 / ref=1 / deblock=0:-1:-1 / analyse=0x1:0x1 / me=dia / subme=1 / psy=1 / psy_rd=1.00:0.15 / mixed_ref=0 / me_range=16 / chroma_me=1 / trellis=0 / 8x8dct=0 / cqm=0 / deadzone=21,11 / fast_pskip=1 / chroma_qp_offset=0 / threads=17 / lookahead_threads=2 / sliced_threads=0 / nr=0 / decimate=1 / interlaced=0 / bluray_compat=0 / constrained_intra=0 / bframes=3 / b_pyramid=2 / b_adapt=1 / b_bias=0 / direct=1 / weightb=0 / open_gop=0 / weightp=0 / keyint=250 / keyint_min=25 / scenecut=40 / intra_refresh=0 / rc_lookahead=0 / rc=abr / mbtree=0 / bitrate=1500 / ratetol=1.0 / qcomp=0.60 / qpmin=0 / qpmax=69 / qpstep=4 / vbv_maxrate=20000 / vbv_bufsize=25000 / nal_hrd=none / filler=0 / ip_ratio=1.40 / pb_ratio=1.30 / aq=1:1.00\r\nEncoded date                : UTC 2017-09-02 08:39:36\r\nTagged date                 : UTC 2017-09-02 08:39:36\r\nColor range                 : Limited\r\nColor primaries             : BT.709\r\nTransfer characteristics    : BT.709\r\nMatrix coefficients         : BT.709\r\n\r\nAudio\r\nID                          : 2\r\nFormat                      : AAC\r\nFormat/Info                 : Advanced Audio Codec\r\nFormat profile              : LC\r\nCodec ID                    : 40\r\nDuration                    : 43 min 56 s\r\nBit rate mode               : Variable\r\nBit rate                    : 128 kb/s\r\nChannel(s)                  : 2 channels\r\nChannel positions           : Front: L R\r\nSampling rate               : 48.0 kHz\r\nFrame rate                  : 46.875 FPS (1024 SPF)\r\nCompression mode            : Lossy\r\nStream size                 : 40.3 MiB (8%)\r\nTitle                       : Stereo / Stereo\r\nLanguage                    : English\r\nDefault                     : Yes\r\nAlternate group             : 1\r\nEncoded date                : UTC 2017-09-02 08:39:36\r\nTagged date                 : UTC 2017-09-02 08:39:36","last_updated":"2017-09-08T12:03:40.065Z","parsed":{"xt":"urn:btih:4f8092f907e64e1f57608f95b613e40faf6dcd0a","dn":"The.Ultimate.Fighter.S26E01.HDTV.H264.Fight-BB","tr":["udp://exodus.desync.com:6969","udp://open.demonii.com:1337","udp://tracker.coppersurfer.tk:6969","udp://tracker.leechers-paradise.org:6969","udp://zer0day.ch:1337"],"infoHash":"4f8092f907e64e1f57608f95b613e40faf6dcd0a","infoHashBuffer":{"type":"Buffer","data":[79,128,146,249,7,230,78,31,87,96,143,149,182,19,228,15,175,109,205,10]},"name":"The.Ultimate.Fighter.S26E01.HDTV.H264.Fight-BB","announce":["udp://exodus.desync.com:6969","udp://open.demonii.com:1337","udp://tracker.coppersurfer.tk:6969","udp://tracker.leechers-paradise.org:6969","udp://zer0day.ch:1337"],"urlList":[]}}